<svg width="32" height="32" viewBox="0 0 32 32" fill="none" xmlns="http://www.w3.org/2000/svg">
<rect width="32" height="32" fill="#FCEAEA"/>
<path d="M25.7181 22.5451C26.2563 22.8241 26.7098 22.7344 27.0786 22.2762C27.4474 21.8179 27.4922 21.3397 27.2131 20.8416L25.0901 16.8368L23.4754 21.2301L25.7181 22.5451ZM19.3789 21.2899H21.4864L24.3725 14.0574C24.4921 13.7785 24.5369 13.5045 24.507 13.2355C24.4771 12.9665 24.3127 12.7623 24.0137 12.6228L21.5318 11.5469C21.2527 11.4075 20.9736 11.4075 20.6946 11.5469C20.4155 11.6864 20.266 11.8956 20.246 12.1745L19.3789 21.2899ZM10.5208 21.2899H12.5912L11.7539 12.1745C11.734 11.8757 11.5994 11.6565 11.3502 11.517C11.1011 11.3776 10.807 11.3875 10.4681 11.5469L8.10589 12.5631C7.84674 12.6627 7.70222 12.8868 7.67231 13.2355C7.64241 13.5842 7.6773 13.898 7.77697 14.1769L10.5208 21.2899ZM6.28188 22.5451L8.52452 21.2301L6.90982 16.8368L4.78679 20.991C4.50771 21.5489 4.56751 22.0022 4.9662 22.3509C5.36489 22.6995 5.80345 22.7643 6.28188 22.5451ZM14.3853 21.2899H17.5848L18.5715 10.4112C18.6114 10.1323 18.5366 9.8982 18.3473 9.70892C18.1579 9.51964 17.9237 9.425 17.6446 9.425H14.3554C14.0364 9.425 13.7972 9.51964 13.6377 9.70892C13.4782 9.8982 13.4085 10.1323 13.4284 10.4112L14.3853 21.2899ZM5.62404 24.5326C4.79895 24.5326 4.10174 24.2382 3.53241 23.6494C2.96328 23.0605 2.67871 22.3537 2.67871 21.529C2.67871 21.2756 2.72356 21.0283 2.81327 20.7872C2.90297 20.5463 3.00245 20.3091 3.11169 20.0756L5.84113 14.7902C5.54211 13.9799 5.52297 13.178 5.78372 12.3847C6.04426 11.5915 6.5501 11.0307 7.30123 10.7023L9.78308 9.6862C10.102 9.56666 10.426 9.49573 10.7549 9.47341C11.0838 9.4511 11.3902 9.52721 11.6741 9.70175C11.8144 9.04982 12.1334 8.51446 12.6309 8.09565C13.1283 7.67684 13.7031 7.46744 14.3554 7.46744H17.6446C18.2968 7.46744 18.8716 7.6619 19.369 8.05082C19.8666 8.43974 20.1855 8.9502 20.3259 9.5822C20.6249 9.46744 20.9351 9.42121 21.2564 9.44353C21.5778 9.46584 21.8879 9.54674 22.187 9.6862L24.6987 10.7023C25.465 10.9956 25.9846 11.5327 26.2575 12.3135C26.5306 13.0946 26.5025 13.8603 26.1732 14.6109L28.8882 20.0457C28.9728 20.2745 29.0661 20.5006 29.1681 20.7242C29.2702 20.9475 29.3212 21.1759 29.3212 21.4095C29.3212 22.2891 29.0068 23.0296 28.3778 23.6309C27.7487 24.232 26.9917 24.5326 26.1068 24.5326C25.8779 24.5326 25.6616 24.4866 25.4579 24.3945C25.2544 24.3025 25.0482 24.2142 24.8392 24.1297L23.0439 23.2475H8.9261L7.22767 24.1297C6.97411 24.2341 6.71565 24.3274 6.45232 24.4094C6.18878 24.4915 5.91269 24.5326 5.62404 24.5326Z" fill="#080C0C"/>
</svg>
